<?xml version="1.0" standalone="no"?>
<!DOCTYPE svg PUBLIC "-//W3C//DTD SVG 20010904//EN"
 "http://www.w3.org/TR/2001/REC-SVG-20010904/DTD/svg10.dtd">
<svg version="1.0" xmlns="http://www.w3.org/2000/svg"
 width="400.000000pt" height="400.000000pt" viewBox="0 0 400.000000 400.000000"
 preserveAspectRatio="xMidYMid meet">
<metadata>
Created by potrace 1.14, written by Peter Selinger 2001-2017
</metadata>
<g transform="translate(0.000000,400.000000) scale(0.100000,-0.100000)"
fill="#000000" stroke="none">
<path d="M1380 3750 c-7 -4 -21 -5 -33 -2 -12 3 -18 1 -14 -5 3 -5 -4 -9 -16
-8 -23 2 -89 -21 -167 -57 -130 -62 -275 -186 -365 -312 -11 -16 -25 -33 -31
-40 -42 -46 -155 -264 -203 -393 -20 -53 -27 -63 -48 -63 -41 0 -136 -56 -183
-107 -65 -72 -66 -74 -158 -253 -32 -63 -72 -129 -88 -145 -16 -17 -39 -44
-52 -60 l-22 -30 0 -640 1 -641 38 -42 c28 -30 37 -48 34 -63 -4 -16 -8 -18
-14 -7 -7 10 -9 10 -9 0 0 -7 -6 -12 -12 -11 -7 1 -20 1 -28 0 -13 -1 -13 -2
0 -11 10 -6 11 -10 3 -10 -10 0 -13 -86 -13 -395 l0 -395 1540 0 c847 0 1540
3 1540 7 0 3 -7 15 -17 25 -15 17 -14 18 45 18 34 0 62 4 62 10 0 5 7 7 15 4
26 -10 227 27 336 62 160 51 214 107 245 253 29 140 9 333 -43 416 -14 22 -46
58 -70 80 l-44 40 18 45 c9 25 20 47 24 50 3 3 9 15 13 28 4 12 11 20 15 17 5
-2 6 6 4 19 -3 13 0 27 6 30 6 4 11 16 11 27 0 11 3 18 8 15 11 -7 5 220 -7
242 -6 11 -8 22 -4 25 3 4 -2 9 -11 13 -9 3 -16 11 -16 17 0 6 -11 20 -25 32
-14 11 -27 31 -29 45 -1 14 -6 31 -10 38 -4 7 -5 12 -3 12 11 0 -45 156 -61
172 -7 7 -12 16 -12 20 0 4 -7 16 -15 25 -8 10 -16 22 -18 27 -1 5 -37 44 -80
87 -77 78 -77 78 -55 93 12 9 28 16 35 16 7 0 13 3 13 8 0 4 17 16 38 27 48
26 55 31 113 87 26 26 51 57 54 70 4 16 27 34 78 59 66 33 72 39 74 68 2 48
11 64 30 57 10 -4 14 -4 10 0 -4 4 2 18 14 30 12 13 19 30 16 38 -4 10 -1 13
7 10 9 -4 15 6 18 30 2 19 1 33 -2 31 -3 -2 -12 10 -19 27 -11 23 -11 38 -3
66 11 34 10 37 -28 73 -21 20 -41 49 -43 65 -3 16 -8 37 -12 46 -7 18 -68 68
-82 68 -18 0 -52 40 -47 54 3 9 -6 22 -23 33 -15 10 -32 23 -38 29 -30 35
-146 94 -266 135 -33 11 -37 17 -53 76 -9 35 -14 69 -10 75 4 7 3 8 -4 4 -11
-7 -16 7 -15 41 1 7 -3 10 -8 7 -5 -3 -12 3 -15 13 -13 40 -28 62 -37 56 -6
-4 -7 -1 -2 6 4 7 -2 22 -16 37 -12 13 -19 24 -16 24 4 0 -2 9 -13 20 -12 12
-26 18 -32 14 -6 -4 -8 -3 -4 4 3 6 -5 19 -19 29 -14 10 -38 28 -53 40 -15 13
-32 23 -39 23 -6 0 -13 5 -15 10 -2 6 -20 12 -40 13 -20 1 -34 5 -31 10 2 4
-2 7 -9 8 -7 0 -22 2 -33 4 -40 8 -120 9 -132 2 -6 -4 -14 -3 -18 3 -4 6 -12
7 -18 3 -6 -4 -31 -6 -55 -4 -29 2 -42 -1 -38 -8 4 -7 1 -8 -8 -5 -17 7 -149
-22 -181 -39 -11 -6 -23 -10 -26 -9 -4 1 -56 -23 -115 -53 -60 -30 -113 -55
-119 -55 -5 0 -28 14 -49 30 -22 17 -46 30 -53 30 -7 0 -13 4 -13 8 0 9 -166
96 -185 98 -5 0 -23 6 -39 13 -16 6 -36 9 -43 7 -8 -3 -12 -2 -9 2 15 25 -317
55 -354 32z m2090 -2933 c77 -77 75 -69 85 -259 9 -168 -12 -193 -165 -201
-52 -3 -133 -16 -179 -27 -74 -20 -90 -21 -140 -10 -31 6 -85 18 -121 25 -88
18 -111 30 -140 72 -14 20 -60 73 -103 116 -43 44 -76 81 -75 82 2 1 24 7 50
14 26 6 94 33 152 61 58 27 110 50 116 50 5 0 10 5 10 12 0 6 3 9 6 6 5 -5 52
21 89 49 83 64 89 66 219 77 32 3 60 7 63 9 2 3 17 2 34 -2 18 -4 56 -32 99
-74z"/>
</g>
</svg>
